<?xml version="1.0" standalone="no"?>
<!DOCTYPE svg PUBLIC "-//W3C//DTD SVG 1.1//EN" "http://www.w3.org/Graphics/SVG/1.1/DTD/svg11.dtd" >
<svg xmlns="http://www.w3.org/2000/svg">
<metadata></metadata>
<defs>
<font id="sweet_inksweet_ink" horiz-adv-x="1013" >
<font-face units-per-em="2048" ascent="1638" descent="-410" />
<missing-glyph horiz-adv-x="500" />
<glyph horiz-adv-x="0" />
<glyph horiz-adv-x="682" />
<glyph unicode="!" horiz-adv-x="1170" d="M235 63q-22 48 2 94q22 41 71 63q48 22 93 12q51 -11 73 -59q22 -49 -2 -94q-22 -41 -70 -63q-49 -23 -94 -13q-51 12 -73 60zM393 303q-93 44 153 714q45 125 96 247q60 146 183 189q111 39 224 -15q16 -7 15 -26q-1 -18 -15 -32q-37 -34 -126 -190q-22 -39 -181 -351 q-164 -323 -262 -498q-16 -28 -45 -38q-25 -8 -42 0z" />
<glyph unicode="#" horiz-adv-x="1731" d="M109 514q47 77 167 81q14 0 156 -3q22 65 84 239q-212 1 -238 -13q-38 -20 -69 -10q-29 8 -43 38q-45 92 -2 163q47 77 167 80q183 -3 274 -3q68 194 61 230q-7 40 12 68q17 26 49 30q100 15 155 -48q59 -68 26 -183q0 -1 -1 -1q-4 -15 -33 -98q83 0 201 -1 q69 195 62 233q-7 40 12 68q17 26 49 30q100 15 155 -48q59 -68 26 -183q-1 -2 0 -1q-6 -16 -34 -99q99 1 121 13q37 19 69 9q29 -9 43 -38q44 -91 1 -162q-47 -78 -167 -81q-17 0 -79 2q-66 1 -77 1q-50 -140 -84 -239q213 -1 239 13q37 19 69 10q29 -9 43 -38 q44 -92 1 -163q-47 -77 -167 -80h-1q-21 0 -138 2q-18 1 -135 1q-7 -20 -9 -25q-27 -87 -36 -117q-19 -67 -15 -89q8 -46 -16 -73q-20 -24 -61 -28q-88 -9 -140 52q-59 68 -25 183q1 6 33 99h-105q-85 1 -96 1q-8 -24 -10 -28q-57 -179 -51 -206q8 -46 -16 -73 q-20 -24 -61 -28q-87 -9 -140 52q-59 68 -26 183h1q2 7 33 100q-99 -1 -121 -13q-37 -19 -68 -10q-29 9 -44 39q-44 91 -1 162zM702 590q106 0 199 -1q63 178 85 240q-160 1 -200 1q-8 -21 -84 -240z" />
<glyph unicode="$" horiz-adv-x="1377" d="M169 239q-22 95 3 177q49 162 270 159q23 0 30 -20q7 -18 -3 -41q-35 -81 -36 -182q0 -134 77 -191q33 105 144 464q-40 52 -79 94q-149 163 -128 325q17 138 146 234q103 77 281 50q26 82 19 131q-3 26 30 36q32 10 69 -5q41 -17 59 -57q21 -48 0 -118q0 2 -13 -40 q75 -38 126 -102q51 -63 61 -128q10 -70 -30 -119q-45 -55 -144 -73q-24 -4 -27 17q-2 9 3 60q10 109 -44 168q-10 -30 -35 -110q-24 -77 -39 -123q75 -82 149 -185q77 -107 80 -227q4 -113 -59 -214q-62 -102 -175 -165q-119 -67 -269 -76q-46 -141 -39 -193q3 -26 -30 -36 q-32 -10 -69 5q-42 17 -59 57q-21 48 0 118q2 5 22 62q-126 27 -203 98q-69 63 -88 150zM661 119q81 24 109 94q32 80 -17 199q-63 -201 -92 -293zM697 1030q8 -11 53 -50q42 137 61 196q-24 12 -56 6t-55 -27q-58 -52 -3 -125z" />
<glyph unicode="%" horiz-adv-x="1299" d="M117 1145q84 214 196 257q126 49 213 -29q37 -33 46 -72q6 -25 -41 -19q-59 8 -114 -57q-37 -44 -61 -102q-45 -110 -58 -154q-35 -114 -3 -134q18 -12 43 1q20 11 32 30q36 58 100 220q17 43 25 78q-15 8 -21 21q-12 29 15 47q2 9 26 10q23 4 84 2q68 -1 127 4 q144 13 231 95q52 49 80 109q2 3 2 4l1 1q9 14 25 11q60 -9 84 -48q23 -38 4 -92v-1q1 2 -1 -2q-8 -21 -20 -39q-147 -231 -720 -1069q-47 -69 -64 -95q-37 -57 -43 -98q-4 -27 -30 -24q-72 11 -91 63q-20 52 24 119q5 8 71 100q17 24 592 885q-105 -28 -201 -26 q5 -34 -7 -72q-74 -235 -231 -294q-66 -25 -147 -20q-78 5 -122 40q-140 109 -46 350zM651 432q84 213 195 257q127 49 214 -30q37 -33 46 -72q6 -24 -41 -18q-59 7 -114 -58q-37 -44 -61 -102q-45 -109 -58 -153q-36 -115 -3 -135q18 -12 43 1q20 11 32 31q36 57 100 219 q30 76 29 109q0 7 -4 17q-6 12 -6 15q-4 14 26 16q85 4 128 -42q46 -48 20 -132q-74 -234 -232 -294q-65 -25 -146 -19q-78 5 -122 39q-140 110 -46 351z" />
<glyph unicode="&#x26;" horiz-adv-x="1569" d="M126 274q-18 108 23 193q46 96 182 201q49 37 118 87q-107 334 134 468q19 16 78 30q69 17 137 13q193 -9 250 -169q39 -107 -66 -204q-51 -48 -243 -162q66 -169 209 -359q29 60 38 121q6 76 -57 124q-40 30 -42 32q-17 18 -13 40q6 27 41 55q30 23 54 28q112 24 217 4 q127 -24 189 44q25 28 43 17q12 -8 19 -28q8 -25 5 -64q-5 -56 -36 -97q-36 -49 -132 -50q-44 0 -156 16q-18 3 -37 -4q45 -154 -56 -335q115 -135 193 -76q57 42 69 136q4 29 31 17t31 -34q8 -37 -47 -130q-59 -99 -117 -127q-182 -87 -342 39q-161 -92 -298 -99 q-132 -7 -249 52q-146 74 -170 221zM357 412q-24 -93 68 -184q46 -45 116 -58q84 -16 173 22q-140 187 -234 386q-104 -89 -123 -166zM620 1066q-2 -53 22 -153l147 97q58 42 55 85q-1 11 -18 46q-11 20 -42 33q-33 13 -67 9q-88 -10 -97 -117z" />
<glyph unicode="(" horiz-adv-x="767" d="M116 353q-55 285 50 574q151 411 446 553q11 6 19 -5q7 -11 -2 -22q-155 -196 -301 -628q-140 -417 -35 -795q5 -16 -8 -26t-24 3q-104 130 -145 346z" />
<glyph unicode=")" horiz-adv-x="777" d="M96 7q-7 12 1 22q156 196 301 627q140 417 35 794q-5 16 8 26q14 10 24 -3q104 -129 145 -345q55 -285 -50 -573q-151 -411 -445 -553q-12 -6 -19 5z" />
<glyph unicode="*" horiz-adv-x="1298" d="M304 1077q-30 64 0 112q33 53 118 54q4 0 90 -2q-17 36 -23 48q-26 50 -41 61l-7 5q-16 13 -18 32q-2 18 10 33q40 50 91 50q69 0 111 -83q1 -2 41 -90q28 38 41 57q32 46 35 65l1 8q3 17 16 28q12 11 29 11l9 -1q70 -13 91 -66q24 -58 -25 -127q-1 -2 -30 -40h23h14 q56 1 73 10l7 4q17 8 36 2q18 -7 26 -24q30 -64 0 -112q-33 -53 -118 -54q-10 0 -105 3h-16q-1 2 1 -3q34 -71 42 -86q25 -50 41 -62l6 -5q16 -12 18 -32q2 -18 -9 -33q-41 -50 -92 -50q-68 0 -110 83q-3 6 -41 91q-29 -40 -42 -58q-32 -45 -34 -64l-2 -9q-3 -17 -15 -27 q-13 -11 -29 -11h-9q-70 14 -92 66q-23 58 25 128q4 5 62 80h-43h-14q-55 -1 -73 -10l-7 -4q-10 -5 -21 -5q-29 0 -41 27z" />
<glyph unicode="+" horiz-adv-x="1289" d="M144 919q47 77 166 81h1q8 0 168 -3q62 -1 75 -1q81 210 77 241q-5 44 15 69q20 23 51 26q105 10 156 -61q50 -70 13 -179q-2 -3 -39 -99q59 0 86 1q70 2 90 12q53 28 94 -8q37 -33 40 -95q2 -65 -40 -111q-51 -54 -148 -57h-1q-5 0 -104 2q-105 2 -117 2 q-103 -262 -97 -308q4 -40 -22 -63q-23 -20 -63 -22q-38 -2 -76 14q-40 17 -62 48q-51 71 -13 179q2 7 61 155q-174 0 -198 -13q-37 -20 -68 -10q-29 8 -44 38q-44 92 -1 162z" />
<glyph unicode="," horiz-adv-x="669" d="M220 34q-22 49 3 95q22 41 71 63q49 23 94 13q51 -12 73 -60q20 -43 4 -101q-15 -52 -54 -101q-38 -48 -84 -72q-49 -27 -88 -16q-13 4 -3 19q1 1 28 33q19 23 23 39q6 21 -13 34l-1 1q-35 15 -53 53z" />
<glyph unicode="-" d="M142 492q0 29 14 53q16 25 46 40q30 14 70 15q8 0 117 -1q194 -3 214 -3h87q49 2 62 9l7 3q20 10 41 3q20 -7 30 -26q14 -30 15 -60q0 -29 -15 -52q-15 -26 -45 -41q-30 -14 -70 -15q-16 0 -96 2q-157 3 -238 3q-62 0 -84 -1q-49 -1 -62 -9l-7 -3q-12 -6 -25 -6 q-14 0 -27 8q-12 8 -19 21q-14 31 -15 60z" />
<glyph unicode="." horiz-adv-x="639" d="M203 58q-20 44 2 86q20 37 64 58q44 20 85 11q46 -10 66 -55q20 -44 -2 -86q-20 -37 -64 -58q-44 -20 -85 -11q-46 10 -66 55z" />
<glyph unicode="/" horiz-adv-x="1188" d="M101 64q-20 52 24 120q4 7 71 100q17 24 331 493q324 486 326 488q47 69 62 92q37 58 43 99q4 27 30 23q73 -10 92 -63q20 -52 -24 -120q-149 -234 -726 -1077q-48 -71 -64 -96q-37 -58 -43 -99q-4 -27 -30 -24q-73 11 -92 64z" />
<glyph unicode="0" horiz-adv-x="1015" d="M21 215q-44 143 23 372q-3 -8 167 476q70 200 99 251q90 155 234 165q77 5 166 -12q100 -19 103 -51q2 -19 -34 -24q-54 -7 -75 -18q-53 -28 -79 -69q-41 -64 -111 -259q-194 -538 -248 -755q-23 -90 -13 -132q10 -38 50 -49q85 -23 168 195q117 305 230 674 q63 205 -10 257q-28 13 -26 38q3 22 22 32q37 20 109 5q91 -19 154 -91q104 -120 0 -428q-205 -604 -197 -590q-89 -148 -264 -188q-136 -31 -264 8q-158 48 -204 193z" />
<glyph unicode="1" horiz-adv-x="809" d="M9 1047q150 17 426 223q214 160 269 194q50 32 79 -4q34 -43 -6 -160q-1 -3 -53 -148q-63 -175 -112 -311q-164 -461 -197 -564q-42 -131 -33 -213q3 -24 -9 -41q-13 -18 -36 -20q-146 -17 -210 74q-65 91 -16 244q16 47 300 800q-131 -114 -243 -148q-98 -30 -134 12 q-28 31 -25 62z" />
<glyph unicode="2" horiz-adv-x="985" d="M43 388q62 203 211 329q47 40 126 90q91 59 116 78q115 86 154 217q40 134 45 169q10 71 -31 83q-30 8 -64 -17q-30 -23 -52 -62q-58 -102 -67 -178q-3 -28 -1 -58t2 -34q-2 -11 -15 -12q-13 -2 -52 3q-85 10 -126 76q-41 68 -16 164q42 163 179 214q169 63 353 -17 q78 -35 125 -104q62 -92 40 -215q-33 -191 -155 -312q-100 -99 -276 -164q-174 -64 -274 -182q-62 -74 -83 -150q102 53 176 43q57 -7 194 -74q74 -36 126 4q47 35 38 87q-5 30 11 42q15 10 33 -2q29 -20 47 -77q19 -60 9 -110q-22 -110 -89 -170q-89 -79 -226 -30 q-47 16 -125 54q-77 37 -124 21q-32 -10 -70 -56q-25 -32 -65 -32q-42 -1 -72 36q-78 98 -2 346z" />
<glyph unicode="3" horiz-adv-x="1014" d="M5 338q14 73 26 105q47 122 166 159q106 32 182 -17q40 -26 33 -50q-5 -18 -32 -33q-30 -17 -49 -65q-15 -40 -47 -150q-29 -98 -8 -146q17 -40 62 -43q116 -9 209 285q58 182 56 282q-2 102 -64 135q-37 20 -36 49q1 21 17 33q8 7 39 21q63 29 90 85q14 28 72 223 q33 111 13 142q-13 21 -52 22q-45 1 -63 -42q-18 -42 -34 -95q-19 -60 -23 -71q-5 -13 -13 -93q-1 -13 -12 -16q-13 -4 -50 1q-102 12 -123 106q-20 92 54 194q59 80 172 108q106 26 213 -5q111 -31 167 -108q62 -87 32 -206q-31 -124 -74 -198q-30 -52 -106 -86 q-62 -27 -126 -33q41 -15 91 -55q72 -59 92 -128q24 -81 5 -170q-6 -30 -62 -203q-67 -210 -266 -261q-97 -24 -291 -7q-106 10 -188 94q-98 100 -72 237z" />
<glyph unicode="4" horiz-adv-x="999" d="M17 669q-33 69 23 141q13 16 406 317q108 83 274 210q130 100 137 105q73 58 127 29q60 -31 16 -163q-39 -114 -105 -289q-90 -241 -102 -273q132 -8 160 -139q9 -45 0 -78q-8 -33 -21 -13q-35 52 -82 67q-32 10 -112 10q-116 -318 -137 -409q-13 -51 -5 -120 q3 -24 -9 -41q-13 -18 -36 -21q-145 -16 -210 77q-64 93 -15 246q5 14 99 264q-49 2 -159 1q-92 -1 -137 4q-80 8 -112 75zM156 764q-6 -18 329 -15q76 203 140 372q-42 -31 -236 -183q-154 -120 -233 -174z" />
<glyph unicode="5" horiz-adv-x="1039" d="M8 370q36 193 183 241q56 19 116 11q53 -7 86 -30q10 -7 22 -24q12 -18 11 -26q-1 -13 -39 -31q-41 -21 -60 -73q-33 -95 -43 -146q-33 -171 69 -190q52 -11 113 70q56 74 98 195q44 121 52 230q9 120 -30 177q-38 58 -126 63q-82 5 -159 -38q-42 -23 -74 -19 q-34 6 -41 42q-5 25 20 96q154 449 172 499q33 91 178 55q216 -55 226 -57q64 -10 146 15q15 4 47 28q29 21 40 21q27 1 34 -22q7 -19 3 -70q-14 -118 -91 -181q-81 -67 -209 -53q-93 9 -268 57l-92 -275q30 22 113 24q101 3 190 -36q170 -75 205 -242q30 -141 -51 -391 q-72 -220 -280 -274q-105 -27 -300 -8q-108 11 -192 110q-95 111 -69 252z" />
<glyph unicode="6" horiz-adv-x="988" d="M28 200q-51 151 16 381q-2 -7 166 476q84 240 201 338q132 110 342 76q96 -16 163 -85q102 -106 49 -288q-52 -148 -238 -112q-53 10 -45 36q2 8 15 31q13 24 19 42q53 162 58 220q3 44 -24 67q-24 20 -58 11q-36 -9 -56 -44q-94 -162 -257 -678q-22 -71 -57 -202 q-49 -182 -53 -198q-24 -84 0 -130q20 -37 62 -40q75 -5 125 102q22 47 84 261q33 111 37 167q7 94 -45 126q-28 13 -23 33q4 17 24 26q62 27 144 2q101 -31 149 -131q38 -77 31 -162q-6 -78 -58 -237q-116 -355 -557 -273q-162 31 -214 185z" />
<glyph unicode="7" horiz-adv-x="993" d="M5 352q30 198 292 461q47 47 209 196q145 132 212 204q-114 24 -218 108q-92 74 -137 74q-67 0 -84 -60q-16 -54 15 -132q7 -20 -17 -30t-62 -4q-97 15 -125 92q-38 102 37 168q78 69 229 47q-12 1 222 -58q158 -40 228 -17q43 15 77 51q24 27 55 24q16 -2 30 -26 q18 -30 16 -77q-6 -134 -167 -334q-349 -434 -451 -653q24 53 -8 -335q-2 -23 -18 -37q-15 -15 -39 -14q-129 3 -217 90q-103 101 -79 262z" />
<glyph unicode="8" horiz-adv-x="987" d="M22 521q13 55 48 130q50 110 165 137q102 24 186 -25q15 -9 26 -26q9 -16 8 -26q-3 -13 -39 -39q-41 -29 -61 -91q-48 -145 -87 -310q-17 -73 -6 -111q14 -45 68 -51q63 -7 107 82q10 19 93 248q33 92 40 150q14 115 -48 172q-19 17 -63 48q-54 38 -75 54 q-93 73 -119 152q-38 115 3 243q64 197 272 217q131 14 205 -3q88 -19 165 -90q33 -31 52 -98q25 -86 -4 -168q-67 -213 -336 -189q-32 3 -40 15q-7 12 7 26q46 44 55 63q6 11 31 95q40 131 46 171q7 47 -13 73q-18 23 -52 18q-44 -6 -68 -71q-13 -34 -76 -241 q-18 -91 18 -149q23 -38 84 -77q91 -59 97 -64q74 -58 103 -126q29 -71 28 -137q-1 -76 -39 -202q-68 -222 -260 -292q-153 -56 -312 -4q-151 49 -203 166q-55 122 -6 330z" />
<glyph unicode="9" horiz-adv-x="989" d="M25 382q52 147 238 112q53 -10 45 -37q-2 -8 -15 -31q-13 -24 -19 -42q-53 -162 -58 -220q-4 -44 24 -67q24 -20 58 -11q35 9 55 44q95 162 257 679q23 71 58 201q49 183 53 198q24 85 -1 131q-19 37 -61 40q-76 5 -125 -102q-22 -48 -84 -261q-33 -112 -37 -168 q-7 -94 45 -125q28 -13 23 -33q-4 -17 -24 -26q-62 -28 -145 -2q-100 31 -149 130q-37 78 -31 162q6 79 58 238q116 354 558 272q162 -30 214 -184q51 -151 -16 -381q2 7 -166 -477q-84 -240 -201 -338q-132 -110 -342 -76q-97 16 -164 85q-102 107 -48 289z" />
<glyph unicode=":" horiz-adv-x="768" d="M292 752q-21 47 2 91q22 40 68 61q47 22 91 12q49 -11 70 -57q22 -47 -2 -91q-21 -40 -68 -61q-47 -22 -90 -12q-49 11 -71 57zM301 60q-21 47 2 91q22 40 68 61q47 22 91 12q49 -11 70 -57q22 -47 -2 -91q-21 -40 -68 -61q-47 -22 -90 -12q-49 11 -71 57z" />
<glyph unicode="?" horiz-adv-x="1249" d="M202 65q-23 50 2 96q22 42 72 65q49 23 96 12q51 -11 74 -60q22 -50 -2 -96q-23 -42 -72 -65q-50 -23 -96 -12q-52 11 -74 60zM297 360q21 195 157 350q61 69 245 209q60 45 116 208q9 27 28 77q16 42 22 60q17 54 -1 82q-14 23 -55 24q-46 0 -65 -44q-67 -162 -75 -228 q-4 -29 -2 -64q2 -33 1 -40q-2 -15 -16 -19q-15 -4 -53 0q-88 11 -131 80q-43 70 -16 168q20 76 56 121q44 56 131 95q93 43 201 31q98 -11 178 -62q66 -41 99 -113q40 -83 16 -174q-45 -181 -121 -268q-78 -89 -310 -224q-139 -81 -294 -323q-13 -20 -41 -25q-23 -4 -40 3 q-36 15 -30 76z" />
<glyph unicode="@" horiz-adv-x="1627" d="M105 738q1 307 218 524t524 218q352 -1 533 -229q94 -118 114 -266q18 -137 -33 -270q-49 -131 -151 -219q-108 -92 -246 -109q-85 -11 -140 35q-52 44 -61 122q-117 -144 -226 -157q-108 -14 -163 57q-59 77 -29 222q12 56 36 118q93 236 214 284q134 51 226 -32 q39 -34 48 -75q4 -16 -6 -22q-11 -7 -37 2q-62 8 -124 -67q-43 -51 -69 -113q-41 -102 -51 -160q-17 -102 64 -61q60 31 119 118q31 57 67 152q34 91 113 106q36 7 65 -9q31 -17 45 -55q16 -41 10 -81q-7 -49 -50 -169q-15 -41 3 -63q17 -20 50 -14q98 17 158 118 q58 98 56 226q-4 219 -177 344q-160 115 -380 100q-228 -15 -383 -162q-175 -168 -182 -447q-6 -242 148 -407q141 -150 364 -188q221 -39 417 51q213 98 310 313q14 6 21 -9q6 -13 -1 -30q-18 -43 -56 -101q-102 -154 -262 -242q-166 -91 -356 -91q-306 0 -522 216 q-217 216 -218 522z" />
<glyph unicode="A" horiz-adv-x="2657" d="M58 724q122 311 376 426q133 60 285 60h23q172 -6 260 -111q59 -71 59 -155q0 -31 -8 -64q-6 -22 -28 -29q-21 -7 -45 1q-32 11 -112 25q-58 11 -113 11q-116 0 -220 -48q-140 -64 -227 -199q-85 -131 -91 -283v-21q0 -147 78 -269q128 -199 344 -250q74 -17 145 -17 q155 0 293 82q157 93 261 266q53 89 209 534q-47 9 -90 9q-72 0 -131 -25q-29 -12 -111 -81q-23 -20 -37 -20t-17 22q-1 7 -1 14q0 28 15 66q23 54 69 94q86 75 218 76q61 0 133 -17q118 339 188 518q79 203 199 285q105 73 273 73q33 0 68 -3q159 -13 258 -109 q94 -91 94 -239q0 -96 -40 -216q-7 -19 -135 -384q-128 -366 -136 -392q-21 -62 -21 -105q0 -34 13 -58q24 -43 87 -43h11q53 2 110 49q14 12 44 40q26 25 39 35q17 13 38 -17q11 -15 11 -28q0 -14 -12 -28q-179 -200 -390 -200h-10q-195 5 -275 115q-46 63 -46 146 q0 57 22 124q2 7 44 124q-53 20 -144 58q-97 -267 -160 -417q-134 -319 -476 -441q-172 -61 -356 -61q-145 0 -297 38q-376 94 -523 431q-70 162 -70 323q0 143 55 285zM1932 698q87 -37 145 -58q213 593 218 606q84 235 84 264q-1 47 -56 59q-9 2 -17 2q-45 0 -76 -59 q-29 -59 -298 -814z" />
<glyph unicode="B" horiz-adv-x="2803" d="M62 724q121 310 374 425q133 60 284 60h23q172 -6 259 -111q59 -70 59 -154q0 -31 -8 -64q-5 -22 -28 -29q-21 -7 -44 1q-33 11 -112 25q-59 11 -114 11q-115 0 -218 -47q-140 -65 -226 -199q-85 -131 -91 -283v-21q0 -147 78 -268q127 -198 343 -248q74 -17 145 -17 q153 0 291 81q156 93 260 266q52 87 165 413q151 441 215 601q112 284 310 424q152 107 393 111h14q262 0 383 -152q43 -53 43 -128q0 -36 -10 -77q-43 -178 -289 -316q216 -41 216 -273q0 -138 -76 -342q-110 -292 -292 -380q-73 -35 -145 -35q-71 0 -141 34 q-111 54 -114 195v6q0 46 14 72q16 26 33 -2q41 -69 89 -70q37 0 79 42q73 74 142 254q82 213 82 315q0 41 -13 64q-20 36 -90 36q-32 0 -76 -8q-49 0 -59 19q-8 16 11 36h-1q195 147 278 250q78 95 90 214q1 14 1 27q0 110 -107 110q-209 0 -408 -491q-17 -42 -155 -427 q-132 -371 -196 -523q-134 -318 -474 -439q-172 -61 -355 -61q-145 0 -296 38q-375 94 -521 430q-70 161 -70 321q0 142 55 284z" />
<glyph unicode="C" horiz-adv-x="1456" d="M51 37q-44 119 -44 269q0 185 67 418q256 894 798 968q55 7 118 7q34 0 70 -2q234 -13 348 -97q103 -76 136 -152q18 -40 18 -92q0 -17 -2 -36q-16 -135 -135 -178q-31 -11 -56 -11q-10 0 -20 2q-33 6 -24 27q37 92 37 178q0 17 -1 34q-10 110 -80 162q-55 39 -132 53 q-30 5 -57 5q-63 0 -117 -28q-164 -86 -294 -319q-101 -182 -237 -566q-120 -342 -121 -551q0 -143 57 -222q62 -87 187 -117q59 -14 122 -14q51 0 105 9q105 17 207 153q110 147 139 341q9 63 9 108q0 23 -2 41q-3 21 8 37q12 18 32 15q122 -15 184 -100q46 -63 46 -151 q0 -50 -15 -109q-36 -141 -193 -281q-210 -187 -495 -187q-214 0 -349 59q-232 101 -314 327z" />
<glyph unicode="D" horiz-adv-x="2281" d="M2 -167q-1 10 -1 19q0 60 33 114q91 152 345 168q154 10 333 12q75 156 137 330q101 283 168 451q72 182 113 251q60 101 158 170q87 61 226 61q80 0 177 -20q80 -24 80 -43q0 -20 -70 -29q-118 -5 -205 -153q-28 -48 -121 -278q-14 -32 -119 -326q-104 -289 -152 -405 q83 5 170 15q194 21 364 165q155 132 251 330q93 194 94 379q0 197 -106 315q-180 200 -453 200h-26q-263 -10 -470 -182q-248 -208 -248 -589q0 -23 -17 -33q-17 -11 -34 0q-107 68 -132 156q-19 68 -19 133q0 159 114 302q223 281 595 331q98 13 189 13q292 0 516 -136 q366 -222 389 -609q2 -27 2 -54q0 -287 -177 -544q-146 -213 -371 -288q-163 -54 -472 -57h-113.5h-125.5q-211 -322 -596 -361q-64 -7 -118 -7q-187 0 -257 78q-46 52 -51 121zM135 -126q-2 -10 -2 -20q0 -33 26 -59q38 -35 114 -36h4q151 0 243 75q62 51 125 170 q-82 1 -143 1q-122 0 -160 -3q-88 -6 -145 -45q-51 -35 -62 -83z" />
<glyph unicode="E" horiz-adv-x="1328" d="M4 358q40 280 179 414q125 119 378 161q17 3 35 6q-71 44 -122 134q-51 91 -51 177v10q7 187 171 336q114 102 321 102q192 0 295 -76q104 -77 137 -153q18 -40 18 -92q0 -17 -2 -36q-16 -135 -135 -178q-31 -11 -56 -11q-11 0 -21 2q-32 6 -24 26q39 94 39 179 q0 47 -12 91q-38 137 -173 141h-2q-75 0 -138 -66q-66 -70 -86 -178q-9 -47 -8 -87q0 -69 24 -120q39 -80 170 -174q118 -84 151 -178q13 -37 -6 -42q-4 -1 -9 -1q-20 0 -66 15q-83 28 -166 28l-54 -3q-220 -25 -330 -192q-80 -122 -121 -365q-8 -48 -8 -93q0 -82 27 -155 q51 -136 185 -189q64 -26 135 -26q44 0 92 10q94 19 141 56q133 103 133 244q0 14 -1 29q-14 146 -147 225q-55 32 -243 92q-34 11 -34 35q0 5 2 12q8 33 54 66q90 66 198 66q31 0 63 -5q214 -36 300 -238q38 -90 38 -184q0 -113 -56 -229q-54 -112 -151 -186 q-123 -95 -280 -107q-24 -1 -48 -1q-294 0 -481 128q-145 98 -213 253q-49 113 -49 235q0 45 7 92z" />
<glyph unicode="F" horiz-adv-x="2587" d="M64 720q122 313 377 429q134 60 286 60h24q172 -6 261 -112q59 -70 59 -154q0 -32 -9 -66q-5 -21 -28 -29q-21 -7 -44 1q-34 11 -113 26q-58 11 -114 11q-116 0 -220 -48q-141 -65 -228 -200q-85 -132 -91 -285q-1 -12 -1 -25q0 -146 78 -266q129 -200 346 -251 q77 -18 150 -18q156 0 298 81q175 101 254 270q41 88 56 130q1 2 43 115q45 124 84 230q-132 6 -187 81q-36 50 -36 125v8q1 13 13 15q13 3 20 -8q57 -78 212 -78q15 0 30 1q145 400 182 523q-169 -16 -258 -19q-88 -3 -160 -3q-219 0 -308 25q-264 74 -264 364v15 q0 10 10 11t15 -7q80 -136 321 -136q21 0 43 1q266 12 1143 126q194 25 318 26q52 0 92 -5q125 -13 208 -79q74 -60 88 -155q2 -19 2 -38q0 -73 -36 -150q-11 -20 -36 -26q-24 -5 -45 8q-141 84 -487 84q-112 0 -246 -9q-29 -80 -175 -489q109 20 198 19q226 0 323 -127 q37 -49 49 -107q5 -23 5 -42q0 -23 -7 -40q-7 -18 -18 -18q-14 0 -36 27q-67 86 -93 103q-82 56 -236 56q-104 0 -240 -25q-63 -174 -91 -251q-72 -199 -107 -282q-135 -320 -478 -442q-174 -62 -359 -62q-145 0 -297 38q-378 95 -525 434q-71 162 -71 323q0 143 56 286z " />
<glyph unicode="G" horiz-adv-x="1581" d="M66 724q147 512 390 756l3 -2q180 182 410 213q56 8 121 8q32 0 67 -2q234 -13 347 -97q103 -76 137 -152q17 -39 17 -89q0 -19 -2 -39q-15 -135 -135 -178q-31 -11 -56 -11q-11 0 -20 2q-32 6 -24 27q37 91 37 177q0 17 -1 34q-9 111 -80 162q-54 40 -131 54 q-30 5 -57 5q-64 0 -118 -28q-231 -122 -422 -596h-4q-49 -121 -108 -289q-117 -332 -117 -543q0 -78 16 -140q53 -204 280 -210q107 0 173 24q187 67 320 328q89 174 107 295q4 27 4 52q0 62 -25 108q-34 62 -99 71q-11 2 -22 2q-59 0 -124 -45q-87 -60 -162 -185 q-40 -66 -62 -154q-15 -66 -29 -71q-6 -2 -12 -2q-30 0 -63 44q-38 51 -55 131q-11 51 -11 95q0 138 100 221q68 57 199 71q94 10 180 10q127 0 239 -22q170 -34 229 -103q48 -57 54 -105q2 -12 2 -26q0 -93 -73 -246q-99 -208 -163 -283q-114 -133 -195 -197 q-138 -108 -298 -136q-69 -12 -159 -12q-29 0 -59 1q-364 0 -521 260q-94 155 -94 379q0 191 69 433z" />
<glyph unicode="H" horiz-adv-x="2764" d="M59 719q122 311 376 426q133 60 285 60h23q172 -6 259 -111q59 -70 59 -154q0 -31 -8 -65q-5 -21 -28 -28q-21 -6 -43 4q-59 28 -108 35q-50 7 -98 7q-131 0 -244 -54q-143 -68 -229 -203q-83 -131 -87 -283v-14q0 -151 80 -275q127 -199 343 -250q74 -17 145 -17 q155 0 293 82q157 93 261 266q84 140 226 615q-19 2 -38 2q-72 0 -133 -25q-30 -12 -111 -82q-24 -20 -37 -20q-15 0 -18 23q-1 7 -1 14q0 28 16 65q23 55 69 95q86 75 219 75q36 0 76 -6q49 170 95 296q-6 6 -12 1q-170 -144 -301 -144q-120 0 -207 120q-7 10 2 18 q10 9 22 4q31 -11 66 -10q93 0 208 76q51 34 253 209q154 136 255 182q86 39 169 39q63 0 126 -22q107 -39 121 -128v-6q0 -34 -63 -51q-170 -45 -329 -523h-1q-61 -165 -63 -173q154 -66 223 -88q190 528 209 575q88 215 181 311q93 97 240 105q14 1 27 1q130 0 215 -80 q8 -8 8 -18q0 -5 -2 -11q-7 -16 -25 -20q-41 -8 -75 -34q-138 -104 -231 -398h-1q-41 -113 -143 -387l-97 -264q-67 -188 -75 -228q-8 -41 -9 -77q0 -82 46 -134q10 -11 0 -27q-11 -16 -33 -16q-135 0 -213 40q-109 57 -134 199q-5 27 -5 57q0 63 22 137q9 31 26 79 q17 44 20 57q-62 23 -215 86q-96 -306 -181 -509q-134 -319 -475 -441q-172 -61 -356 -61q-145 0 -298 38q-375 94 -522 431q-70 162 -70 323q0 142 55 284z" />
<glyph unicode="I" horiz-adv-x="2037" d="M68 726q-55 -141 -55 -283q0 -160 70 -320q146 -336 520 -429q151 -38 295 -38q183 0 354 61q340 121 473 438q36 85 107 279q35 97 72 218q32 108 43 136q3 6 66 174q50 134 90 223q126 278 235 307q63 17 63 50v6q-14 90 -121 128q-63 23 -127 23q-103 0 -210 -59 q-66 -36 -210 -161q-200 -174 -251 -209q-115 -76 -207 -75q-35 0 -66 10q-12 4 -22 -4q-9 -8 -2 -18q66 -90 158 -112q27 -6 54 -6q115 0 251 107q20 16 42 35q5 4 10 1q6 -3 4 -8q-48 -125 -113 -347q-90 -306 -167 -512q-48 -126 -84 -186q-103 -172 -259 -265 q-137 -81 -290 -81q-71 0 -145 17q-215 51 -342 248q-78 120 -78 264q0 12 1 24q6 152 90 282q86 134 226 198q103 48 219 48q54 0 111 -11q79 -15 112 -26q23 -7 44 0q23 7 28 28q8 33 8 64q0 84 -59 154q-87 105 -258 110q-14 1 -28 1q-148 0 -278 -60 q-252 -115 -374 -424zM2032 1861q-16 33 -16 68q0 37 18 75q34 74 113 111q48 22 96 22l62 -9q78 -22 109 -91q16 -33 15 -67q0 -37 -17 -75q-34 -74 -113 -111q-48 -22 -96 -22l-62 9q-78 22 -109 90z" />
<glyph unicode="J" horiz-adv-x="2016" d="M68 726q122 309 374 424q130 60 278 60q14 0 28 -1q171 -5 258 -110q59 -70 59 -154q0 -31 -8 -64q-5 -21 -28 -28q-21 -7 -44 0q-33 11 -112 26q-57 11 -111 11q-116 0 -219 -48q-140 -64 -226 -198q-84 -130 -90 -282q-1 -12 -1 -24q0 -144 78 -264q127 -197 342 -248 q74 -17 145 -17q153 0 290 81q156 93 259 265q36 60 84 186q77 206 167 512q65 222 113 347q2 5 -4 8q-5 3 -10 -1q-22 -19 -42 -35q-135 -107 -251 -107q-27 0 -54 6q-92 22 -158 112q-7 10 2 18q10 8 22 4q31 -11 66 -11q92 0 207 76q51 35 251 209q144 125 210 161 q107 59 210 59q64 0 127 -23q107 -38 121 -128v-6q0 -33 -63 -50q-109 -29 -235 -307q-40 -89 -90 -223q-63 -168 -66 -174q-11 -28 -43 -136q-37 -121 -72 -218q-71 -194 -107 -279q-133 -317 -473 -438q-171 -61 -354 -61q-144 0 -295 38q-374 93 -520 429 q-70 161 -70 320q0 142 55 283z" />
<glyph unicode="K" horiz-adv-x="2834" d="M58 733q119 302 369 415q130 58 278 58h24q169 -6 255 -108q58 -69 58 -151q0 -30 -8 -62q-5 -21 -28 -28q-20 -7 -44 1q-31 10 -110 25q-56 10 -110 10q-114 0 -216 -46q-138 -63 -223 -194q-83 -128 -89 -276q0 -11 -1 -21q0 -143 77 -261q126 -193 338 -243 q73 -17 143 -17q151 0 286 80q154 90 256 259q36 59 83 182q76 202 165 501q64 216 116 353q2 6 -3 8q-5 3 -10 -1q-21 -17 -41 -34q-134 -104 -247 -104q-28 0 -55 6q-91 21 -156 109q-7 10 3 18q9 8 21 4q33 -11 69 -11q89 0 197 68q64 40 246 196q153 134 209 166 q110 63 216 63q61 0 120 -21q106 -38 119 -125v-6q0 -33 -62 -50q-143 -37 -348 -590q760 791 1123 792q24 0 47 -4q81 -13 124 -58q40 -41 40 -100q0 -87 -96 -156q-40 -29 -73 -31q-37 -3 -49 28q-20 50 -41 68q-19 17 -48 17q-9 0 -20 -2q-79 -13 -335 -169 q-105 -63 -308 -243q192 -35 254 -421q96 -599 121 -693q44 -165 136 -231q72 -52 190 -52t236 100q238 203 238 237q0 7 -10 7h140h-1q54 -2 72 -22q10 -10 10 -26q0 -13 -7 -30q-12 -31 -38 -59q-130 -139 -250 -208q-169 -95 -397 -111q-48 -3 -92 -3q-210 0 -339 71 q-184 101 -268 376q-18 57 -84 563q-26 200 -106 256q-26 17 -48 18q-60 -59 -238 -260q-19 -57 -40 -113q-71 -192 -105 -273q-132 -310 -467 -429q-168 -59 -348 -59q-143 0 -293 37q-368 91 -513 419q-69 157 -69 313q0 139 55 278z" />
<glyph unicode="L" horiz-adv-x="1711" d="M60 45q-58 117 -58 225q0 119 70 226q124 193 373 193h20q151 -4 298 -74q137 -65 378 -240q136 379 304 821q2 6 -3 8q-6 3 -11 -1q-21 -18 -42 -34q-133 -105 -252 -105q-30 0 -60 7q-101 23 -166 113q-8 10 2 18q9 9 21 4q31 -11 65 -11q92 0 207 77q51 33 249 206 q143 125 208 161q106 58 210 58q64 0 126 -22q107 -39 119 -128q1 -3 1 -7q0 -32 -63 -48q-136 -37 -268 -405q-193 -545 -352 -929q335 -336 486 -436q102 -69 248 -69h16q147 5 223 71q230 202 230 229q0 4 -6 4h-2q56 7 98 7q94 0 113 -36q6 -11 6 -24q0 -76 -195 -224 q-201 -172 -483 -172q-142 0 -228 27q-124 38 -265 154q-55 45 -320 306q-135 -229 -343 -301q-100 -35 -223 -35q-114 0 -250 30q-320 69 -481 356zM166 294q7 -91 64 -157q117 -168 310 -195q38 -5 73 -6q127 0 215 72q101 81 177 279q-304 232 -472 282q-56 16 -106 16 q-53 0 -101 -18q-81 -33 -125 -111q-36 -63 -37 -135q1 -13 2 -27z" />
<glyph unicode="M" horiz-adv-x="3211" d="M60 716q121 306 372 420q132 59 281 60q12 0 24 -1q171 -6 258 -109q58 -70 58 -152q0 -31 -8 -64q-5 -21 -28 -29q-21 -7 -44 1q-33 11 -111 25q-58 11 -112 11q-115 0 -217 -47q-139 -64 -226 -196q-83 -129 -89 -280q-1 -12 -1 -24q0 -143 77 -261q127 -196 341 -246 q73 -17 144 -17q153 0 290 81q155 91 258 262q36 59 83 185q77 203 167 507q65 218 112 343q2 5 -3 8t-10 -1q-20 -17 -42 -34q-135 -106 -250 -106q-28 0 -54 6q-92 21 -157 110q-8 10 2 19q9 8 22 4q32 -11 67 -11q91 0 204 75q51 34 250 207q152 131 211 164 q110 62 215 62q63 0 123 -22q107 -38 120 -126q2 -11 -3 -20v-1q-179 -388 -185 -413q-59 -268 -59 -483q0 -158 32 -289q61 43 271 589q195 509 312 626q139 140 344 140q57 0 119 -11q116 -20 176 -75q12 -12 6 -29q-7 -16 -24 -19q-47 -9 -75 -34q-68 -58 -145 -202 q-101 -222 -175 -628q-50 -279 -51 -460q0 -31 2 -58q17 -311 196 -445q112 -84 280 -99q45 -4 86 -4q181 0 299 78q43 29 111 147q55 96 131 105q58 7 100 7q94 0 112 -35q5 -10 5 -22q0 -38 -51 -94q-143 -154 -287 -223q-133 -65 -324 -81q-56 -5 -109 -5 q-354 0 -550 223q-185 209 -185 554q0 55 5 113l75 459q-1 0 -49 -114q-39 -94 -79 -193q-90 -225 -162 -336q-119 -184 -248 -184h-1q-65 0 -125 34q-91 51 -129 168q-52 159 -52 381q0 173 32 385q-14 -38 -45 -121q-25 -67 -36 -94t-43 -134q-36 -120 -72 -217 q-71 -194 -106 -276q-133 -314 -471 -434q-171 -60 -353 -60q-143 0 -294 37q-373 93 -518 425q-70 160 -70 318q0 140 55 280z" />
<glyph unicode="N" horiz-adv-x="2826" d="M54 720q121 310 375 425q132 60 284 61q12 0 23 -1q171 -6 259 -111q59 -70 59 -154q0 -31 -8 -64q-6 -22 -28 -30q-21 -6 -45 1q-112 38 -216 38q-86 0 -167 -26q-161 -51 -265 -189q-99 -133 -111 -296q-2 -22 -1 -43q0 -145 77 -265q85 -133 221 -204q121 -63 258 -64 q12 0 24 1q336 13 537 348q75 125 190 499q150 485 174 549q2 5 -3 8t-10 -1q-21 -18 -42 -35q-136 -107 -252 -107q-28 0 -55 6q-92 22 -158 112q-7 10 3 18q9 9 21 4q33 -11 69 -11q66 0 139 38q82 41 213 155q181 159 218 187q126 96 226 118q44 9 86 9q86 0 159 -40 q88 -49 88 -107q0 -9 -2 -17q-117 -214 -160 -507q-19 -134 -19 -258q0 -145 26 -276q110 328 163 476q168 472 311 622q93 96 240 104q14 1 27 1q130 0 214 -80q8 -8 8 -17q0 -5 -2 -11q-6 -17 -24 -20q-107 -21 -225 -245q-255 -478 -415 -1082q-19 -72 -19 -127 q0 -21 3 -41q7 -47 -6 -59q-15 -14 -46 -14q-28 0 -68 11q-105 28 -187 125q-167 200 -167 608q0 182 33 406q-95 -218 -186 -504q-94 -297 -179 -497q-134 -318 -474 -440q-172 -61 -356 -61q-145 0 -296 38q-375 94 -521 430q-70 162 -70 322q0 142 55 284z" />
<glyph unicode="O" horiz-adv-x="1749" d="M5 128q-3 30 -3 63q0 104 27 235q48 233 165 411q145 221 313 315q166 91 318 91q18 0 35 -1q121 -9 184 -66q17 -16 10 -34q-6 -18 -23 -19q-290 -33 -548 -514q-156 -290 -172 -501q-2 -22 -2 -43q0 -226 201 -272q32 -7 65 -8q153 0 321 161q182 173 323 468 q159 335 205 505q33 122 33 220q0 123 -52 209q-71 119 -239 148q-49 8 -102 8q-114 0 -246 -38q-192 -55 -349 -169q-168 -122 -240 -273q-8 -16 -25 -18q-18 -1 -25 15q-41 83 -41 168q0 110 68 224q48 82 177 158q167 98 373 112q72 5 137 5q137 0 235 -22 q194 -44 335 -182q257 -252 257 -606q0 -33 -2 -66q-19 -277 -182 -584q-175 -330 -476 -478q-224 -110 -490 -110q-32 0 -65 2q-174 8 -302 102q-177 128 -198 384z" />
<glyph unicode="P" horiz-adv-x="2961" d="M58 719q122 310 375 425q133 60 285 60h23q171 -6 259 -110q59 -71 59 -155q0 -31 -8 -64q-6 -22 -28 -29q-21 -7 -45 1q-33 11 -112 25q-58 11 -113 11q-115 0 -219 -48q-140 -64 -227 -199q-84 -130 -90 -283v-21q0 -146 77 -268q128 -198 344 -249q74 -17 145 -17 q154 0 292 81q156 93 260 267q36 59 84 186q37 98 98 296q66 214 115 350q132 366 330 540q201 176 511 176q27 0 56 -1q346 -18 478 -223q60 -92 59 -217q0 -64 -15 -137q-63 -290 -385 -504q-145 -97 -323 -127q-61 -11 -111 -11q-104 0 -163 46q-6 5 -3 13t11 9 q175 12 341 167q177 164 278 393q62 141 62 235q0 65 -29 107q-78 114 -227 114q-32 0 -68 -5q-138 -20 -248 -195q-52 -83 -141 -303q-13 -33 -94 -274q-88 -264 -122 -356q-73 -198 -107 -280q-134 -318 -475 -440q-172 -61 -356 -61q-145 0 -296 38q-376 94 -522 431 q-70 162 -70 322q0 142 55 284z" />
<glyph unicode="Q" horiz-adv-x="1749" d="M19 128q-3 30 -3 62q0 104 27 235q48 233 165 411q145 222 314 315q167 92 317 92q18 0 35 -1q122 -9 185 -67q17 -15 10 -34q-6 -17 -23 -19q-291 -33 -549 -514q-156 -289 -172 -501q-2 -22 -2 -43q0 -226 201 -272q31 -7 64 -7q93 0 194 60q-14 3 -29 10 q-138 61 -151 196q-1 15 -1 29q0 97 64 173q93 108 235 124q21 2 41 2q127 0 226 -94q36 63 66 128q159 335 206 505q33 122 33 220q0 124 -52 210q-71 119 -239 147q-51 9 -105 9q-114 0 -244 -38q-191 -55 -349 -170q-168 -122 -240 -273q-8 -16 -25 -17q-18 -1 -25 14 q-41 83 -41 169q0 110 68 224q48 82 177 157q167 99 374 113q71 5 134 5q138 0 238 -23q194 -43 335 -181q257 -252 257 -606q0 -33 -2 -67q-19 -277 -182 -584q-85 -162 -204 -282q26 -62 83 -152q78 -125 162 -125q8 0 15 1q15 2 25 -8q9 -10 3 -22q-86 -146 -235 -147h-2 q-144 0 -211 133q-32 63 -67 147q-242 -134 -537 -134q-32 0 -64 2q-174 9 -302 103q-177 128 -198 385zM705 84q-5 -17 -5 -32q0 -42 35 -78q39 -39 89 -39q12 0 24 2q77 13 157 110q-62 129 -154 137q-11 1 -21 1q-95 0 -125 -101z" />
<glyph unicode="R" horiz-adv-x="2679" d="M64 713q121 308 372 423q132 59 281 60q12 0 24 -1q171 -6 258 -110q58 -70 58 -153q0 -31 -8 -64q-5 -21 -28 -29q-21 -7 -44 1q-33 11 -111 26q-57 11 -111 11q-115 0 -219 -48q-139 -64 -225 -197q-83 -130 -89 -281v-22q0 -146 76 -265q127 -197 341 -247 q74 -17 145 -18q152 0 289 81q155 93 258 265q36 59 84 185q25 68 135 388q99 289 159 438q111 283 308 422q156 110 442 110h5q327 0 446 -184q65 -102 65 -223q0 -40 -7 -82q-43 -240 -333 -451q-100 -72 -288 -114q39 -92 63 -244q96 -605 99 -613q40 -78 119 -124 q70 -39 145 -40q7 0 14 1q184 11 290 103q33 28 94 139q43 78 122 88q56 7 98 7q94 0 114 -36q5 -10 5 -22q0 -38 -52 -94q-121 -131 -240 -194q-151 -79 -387 -104q-82 -9 -155 -9q-467 0 -559 360q-22 89 -33 221q-14 192 -20 234q-26 204 -107 260q-27 18 -54 18 q-12 0 -24 -3q-38 -107 -58 -160q-73 -199 -106 -278q-133 -316 -471 -436q-171 -61 -353 -61q-144 0 -294 38q-373 93 -518 427q-70 161 -70 320q0 141 55 281zM1944 764h15q113 0 163 14q136 38 272 182q262 278 262 436q0 46 -22 82q-48 77 -109 85h-5q-18 0 -77 -9 q-206 -35 -379 -462q-17 -40 -120 -328z" />
<glyph unicode="S" horiz-adv-x="1908" d="M1 356q-6 55 -6 106q0 261 144 444q97 123 246 195q90 42 170 42q58 0 111 -22q116 -48 146 -171q5 -21 -12 -38q-15 -16 -40 -20q-35 -5 -111 -29q-174 -52 -278 -185q-95 -121 -110 -281q-3 -29 -3 -58q0 -123 52 -235q68 -144 202 -221q137 -79 287 -79q65 0 132 15 q435 97 468 614q1 8 1 17q0 81 -37 319q-11 72 -30 187q-15 91 -16 102q-10 90 -10 167q0 143 35 239q76 209 321 239q32 4 63 4q127 0 223 -67q121 -84 121 -227v-11q-8 -206 -175 -298q-24 -13 -44 -13q-22 0 -39 16q-15 14 -15 36q-1 24 18 41q57 53 77 80q41 51 46 117 v15q0 52 -24 96q-27 51 -73 68q-19 7 -39 7q-33 0 -68 -19q-74 -40 -73 -197q0 -22 1 -47q4 -68 21 -187q25 -169 29 -195h-2q23 -194 33 -312q3 -43 4 -84q0 -307 -185 -527q-208 -247 -596 -324q-94 -18 -182 -18q-271 0 -487 172q-263 209 -296 527z" />
<glyph unicode="T" horiz-adv-x="2134" d="M54 718q95 242 284 374q165 114 356 118h15q168 0 270 -88q85 -72 85 -176q0 -34 -9 -71q-5 -21 -29 -29q-21 -7 -44 1q-113 38 -218 38q-87 0 -169 -26q-162 -51 -267 -191q-101 -134 -113 -299q-1 -20 -1 -40q0 -148 78 -271q93 -145 250 -216q116 -54 241 -54 q38 0 76 5q172 22 310 137q152 127 229 342q287 791 315 869q-142 -25 -237 -27h-14q-279 0 -499 277q-77 97 -108 179q-12 34 -9 46q4 14 23 -1q264 -202 563 -202h23q286 7 495 84q56 21 162 70q99 46 159 66q200 70 354 70q156 0 265 -72q92 -60 115 -160q7 -31 7 -63 q0 -71 -36 -147q-10 -21 -35 -26q-23 -5 -45 6q-127 66 -309 66q-56 0 -118 -6q-105 -11 -339 -69q-350 -976 -398 -1092q-135 -321 -479 -444q-173 -61 -358 -61q-146 0 -300 38q-378 95 -526 435q-71 163 -71 324q0 143 56 286z" />
<glyph unicode="U" horiz-adv-x="2292" d="M16 1251q59 234 301 364q154 82 318 82q112 0 228 -38q256 -84 405 -269q140 -172 140 -387q0 -50 -8 -102q-23 -133 -145 -537q-115 -378 -121 -452q1 -102 71 -112q7 -1 15 -1q109 0 230 222q86 157 229 540q12 32 98 302q89 278 113 344q97 271 180 374q78 96 223 111 q25 3 49 3q112 0 200 -58q8 -5 8 -14q0 -4 -2 -9q-5 -14 -21 -19q-109 -37 -236 -349q-40 -101 -87 -243q-10 -29 -33 -101q-17 -53 -24 -73q-61 -172 -90 -372q-1 -5 -31 -174q-24 -135 -34 -228q-8 -77 -8 -138q0 -170 61 -223q11 -11 9 -25q-2 -15 -16 -18q-27 -4 -54 -4 l-178 46q-109 56 -161 151q-30 55 -30 160q0 15 1 32q-190 -370 -423 -384q-34 -6 -66 -6q-116 0 -218 76q-122 92 -122 257q0 55 13 117q9 44 74 232q73 213 104 324q73 263 92 388q8 51 8 99q0 105 -38 192q-70 160 -259 227q-82 29 -162 29q-83 0 -163 -32 q-158 -62 -219 -232q-28 -77 -28 -152q0 -86 36 -171q78 -185 275 -237q24 -6 37 -24q15 -19 5 -39q-40 -84 -130 -104q-24 -6 -49 -6q-76 0 -156 54q-106 70 -166 174q-68 117 -68 260q0 82 23 173z" />
<glyph unicode="V" horiz-adv-x="1997" d="M33 1247q59 232 306 363q165 87 342 88q105 0 214 -31q265 -74 405 -253q123 -157 123 -367q0 -73 -15 -152q-41 -217 -184 -857q-15 -50 -23 -141q1 -79 71 -90q10 -2 21 -2q137 0 262 282q46 105 119 310q99 282 126 351q286 788 593 900q137 50 249 50q159 0 268 -100 q92 -84 92 -169q0 -10 -1 -20q-9 -64 -70 -122q-16 -15 -40 -8q-21 6 -33 28q-64 110 -185 150q-59 20 -112 20q-29 0 -56 -6q-88 -20 -174 -89q-168 -134 -317 -510q-194 -531 -276 -745q-83 -221 -140 -303q-130 -185 -338 -189h-12q-163 0 -274 80q-122 87 -122 250 q0 54 13 117q16 71 69 288q145 590 154 666q5 41 5 80q0 110 -39 209q-69 170 -241 240q-78 33 -158 33q-83 0 -169 -35q-110 -44 -180 -149q-65 -99 -73 -222q-1 -16 -1 -31q0 -108 50 -199q63 -114 190 -174q47 -22 67 -29q25 -9 38 -26q15 -20 5 -40q-39 -85 -131 -105 q-24 -5 -48 -5q-77 0 -158 53q-106 71 -166 175q-69 119 -69 263q0 82 23 173z" />
<glyph unicode="W" horiz-adv-x="2779" d="M20 1256q60 234 304 365q155 83 320 83q112 0 228 -38q258 -84 408 -270q141 -174 141 -391q0 -50 -8 -102q-3 -16 -33 -145q-31 -134 -32 -139q-21 -107 -136 -560q-17 -68 -17 -122q0 -32 6 -58q15 -68 59 -74q9 -1 18 -1q150 0 295 332q31 70 197 664q156 557 187 593 q19 21 55 20q35 -2 66 -25q53 -40 53 -104q0 -33 -14 -73q-156 -441 -155 -441v1q-109 -327 -153 -600q-19 -119 -19 -195q0 -131 54 -142q12 -3 25 -3q111 0 219 242q42 91 102 262q83 235 100 279q180 471 183 477q277 605 769 605h26q138 -4 197 -18q124 -29 226 -123 q77 -71 77 -139q0 -81 -110 -159q-18 -14 -39 -8q-22 6 -34 26q-77 140 -150 203q-75 67 -164 67q-11 0 -22 -1q-91 -7 -195 -107t-271 -476q-202 -593 -246 -722q-124 -358 -309 -506q-112 -90 -233 -90q-98 0 -203 59q-67 38 -105 115q-33 68 -33 147q0 23 3 47 q-187 -354 -409 -368q-31 -5 -60 -5q-119 0 -226 83q-123 97 -123 264q0 55 13 118q12 52 75 300q68 265 98 394q44 194 44 338q0 130 -36 219q-55 135 -219 209q-81 37 -169 37t-182 -38q-111 -44 -179 -147q-64 -99 -69 -219q-1 -12 -1 -23q0 -111 53 -203 q66 -114 193 -173q47 -22 66 -29q25 -9 38 -27q16 -19 5 -39q-39 -85 -131 -105q-24 -6 -49 -6q-76 0 -157 54q-106 71 -166 176q-69 118 -69 261q0 83 23 174z" />
<glyph unicode="X" horiz-adv-x="2508" d="M48 207q-47 136 -47 267q0 172 80 337q146 298 407 393q110 40 228 40q40 0 82 -5q193 -21 265 -155q33 -60 33 -119q0 -66 -40 -131q-26 29 -158 65q-80 22 -156 22q-92 0 -178 -32q-145 -53 -242 -180q-94 -123 -112 -274q-4 -33 -4 -65q0 -122 58 -230 q111 -207 322 -274q96 -31 189 -31q129 0 250 60q164 80 281 244q41 57 98 180q58 124 208 497q10 25 27 65q-320 641 -470 717q-49 24 -113 33q77 31 77 33h-2q81 22 114 23h6q88 0 163 -59q113 -88 324 -507q199 452 328 521q88 48 179 48q44 0 88 -11q82 -19 134 -62 q33 -28 33 -50q0 -12 -10 -23q4 5 -52 -19q-52 -22 -76 -58q-68 -96 -96 -148q-31 -52 -303 -596q-5 -11 -14 -30q318 -669 514 -925q101 -129 286 -133h2q124 0 230 100q22 21 97 154q48 86 129 86q190 0 210 -21q10 -10 10 -26q0 -13 -7 -30q-13 -29 -39 -58 q-295 -315 -624 -315q-145 0 -230 27q-105 33 -196 122q-169 167 -479 776q-18 -40 -33 -72q-87 -190 -128 -270q-159 -306 -507 -400q-134 -36 -272 -36q-186 0 -379 65q-366 122 -485 470z" />
<glyph unicode="Y" horiz-adv-x="2036" d="M52 710q113 289 333 390q87 41 172 41h4q82 -1 137 -38q79 -53 96 -145q6 -38 -4 -62q-10 -26 -33 -26h-21q-81 0 -146 -20q-246 -75 -343 -327q-40 -104 -40 -202q0 -138 80 -263q127 -198 342 -249q74 -17 145 -17q154 0 291 81q156 93 260 266q35 59 83 186 q73 195 127 375q-72 -64 -190 -77q-25 -2 -49 -2q-91 0 -173 36q-114 50 -162 152q-30 64 -30 141q0 65 21 139q11 38 42 123q37 103 56 160q11 42 11 75q0 112 -126 122q-15 1 -30 1q-204 0 -204 -244q0 -24 2 -51q1 -22 -36 -23q-37 0 -79 22q-93 49 -93 141q0 20 4 42 q10 51 70 110q73 71 170 95q92 22 181 22q73 0 145 -15q181 -38 282 -164q53 -68 53 -142q0 -26 -6 -53q-7 -30 -38 -120q-34 -96 -53 -170q1 2 2 3q-33 -84 -33 -145q0 -15 2 -28q8 -60 53 -79q17 -7 36 -7q29 0 63 15q59 26 106 87q60 79 136 265q97 241 128 301 q82 159 180 217q66 40 146 40q67 0 143 -28q107 -39 121 -128v-6q0 -33 -63 -50q-142 -38 -326 -532q-38 -103 -148 -425q-89 -261 -139 -382q-134 -317 -473 -438q-172 -61 -354 -61q-145 0 -296 38q-375 93 -521 429q-70 161 -70 320q0 142 56 284z" />
<glyph unicode="Z" horiz-adv-x="1780" d="M64 58q-56 116 -56 222q0 117 68 221q122 190 367 190h20q147 -3 293 -73q135 -63 371 -235q87 241 267 724h1l57 152q-56 -16 -108 -16q-11 0 -21 1q-179 9 -339 142q-89 73 -108 86q-46 28 -89 28q-9 0 -18 -1q-75 -11 -75 -91q0 -82 67 -124q29 -18 -14 -36 q-35 -15 -83 -15q-13 0 -27 1q-187 15 -215 186q-3 17 -3 33q0 72 53 137q83 101 254 101q123 0 278 -122q159 -127 295 -134q8 0 16 -1q81 0 160 46q28 17 141 106q85 67 150 86q38 12 80 12q59 0 124 -24q105 -38 118 -125v-6q0 -33 -61 -49q-121 -32 -265 -397 q-25 -66 -149 -402q-107 -297 -195 -511q328 -330 476 -429q103 -68 247 -68h12q146 5 220 70q226 200 226 225q0 4 -5 4h-2q56 7 98 7q92 0 109 -35q6 -11 6 -24q0 -74 -192 -219q-197 -170 -474 -170q-140 0 -225 26q-121 37 -259 152q-54 43 -315 302 q-134 -227 -337 -298q-99 -34 -221 -34q-112 0 -244 29q-315 70 -474 350zM195 211q7 -95 67 -163q123 -174 322 -203q39 -6 76 -6q133 0 225 75q104 84 183 290q-315 242 -490 293q-58 17 -111 17q-55 0 -104 -19q-85 -34 -131 -115q-38 -67 -38 -144q0 -13 1 -25z" />
<glyph unicode="a" horiz-adv-x="1033" d="M32 103q-26 54 -26 126q0 103 54 243q46 115 105 200q73 105 148 134q57 21 110 21q17 0 34 -2q70 -10 122 -56q46 -41 58 -90q4 -18 -8 -25q-13 -8 -43 3q-7 1 -14 1q-66 0 -133 -80q-51 -61 -81 -134q-50 -120 -61 -189q-3 -20 -3 -35q0 -50 33 -50q18 0 46 14 q71 36 162 170q77 211 104 276q59 140 179 182q45 16 89 16q63 0 125 -32q16 -8 14 -27q-1 -18 -16 -31q-39 -37 -74 -114q-31 -69 -148 -367q-9 -22 -9 -40q0 -21 13 -36q14 -19 39 -19q9 0 20 3q44 12 114 85q45 44 60 56q20 16 32 10q18 -6 23 -20q2 -5 2 -10 q0 -14 -13 -31q-43 -58 -125 -138q-100 -100 -215 -115q-19 -2 -37 -2q-76 0 -129 44q-62 52 -72 144q-138 -169 -267 -186q-19 -2 -36 -2q-51 0 -92 19q-56 26 -84 84z" />
<glyph unicode="b" horiz-adv-x="836" d="M16 211q-9 43 -9 89q0 114 52 254q173 464 229 640q44 134 45 209q1 65 45 70q21 2 41 2q113 0 168 -79q37 -53 37 -125q0 -54 -21 -120q-5 -14 -107 -277q-103 -268 -114 -298q-70 -200 -82 -244q-28 -100 -28 -163q0 -29 6 -49q8 -23 40 -28h5q50 0 111 141 q16 38 76 214q42 121 48 157q5 28 5 52q0 75 -48 104q-29 16 -32 30t14 23q34 19 79 19q13 0 27 -2q141 -13 200 -170q19 -50 19 -110q0 -118 -75 -271q-138 -279 -376 -279h-75q-239 7 -280 211z" />
<glyph unicode="c" horiz-adv-x="629" d="M25 447q69 241 234 334q76 43 156 43h11q80 -4 138 -48q63 -49 78 -112q2 -8 -3 -16q-4 -9 -13 -11q-23 -9 -46 25q-29 40 -80 41q-21 1 -37 -7q-46 -22 -91 -117q-19 -39 -54 -138q-45 -127 -45 -184q0 -101 103 -103h2q87 0 177 92q43 44 58 56q20 15 32 10 q18 -7 23 -20q2 -4 2 -9q0 -14 -14 -32q-42 -57 -122 -136q-116 -115 -245 -115q-9 0 -19 1q-166 6 -234 121q-38 64 -38 155q0 76 27 170z" />
<glyph unicode="d" horiz-adv-x="1082" d="M29 104q-26 54 -26 125q0 103 54 243q110 279 254 335q60 23 113 24q85 0 153 -61q46 -41 57 -90q4 -15 -14 -21q-15 -4 -37 -1q-7 1 -13 1q-66 0 -134 -81q-50 -60 -81 -134q-49 -120 -60 -189q-3 -21 -3 -36q0 -48 33 -49q18 0 45 14q73 37 163 170q72 105 109 194 q118 285 234 640q44 133 45 210q0 64 44 69q22 3 43 3q112 0 166 -80q36 -52 36 -124q0 -55 -21 -121q-24 -75 -344 -888q-9 -22 -9 -39q0 -21 13 -37q14 -19 39 -19q9 0 20 3q44 13 115 85q44 45 59 57q20 15 33 10q25 -10 25 -30q0 -14 -13 -32q-43 -58 -125 -138 q-101 -100 -216 -115q-19 -2 -36 -2q-85 0 -140 53q-58 58 -58 156q0 20 2 41q-45 -77 -127 -149q-99 -87 -186 -99q-21 -3 -40 -3q-122 0 -172 105z" />
<glyph unicode="e" horiz-adv-x="610" d="M4 324h1q14 123 74 245q74 150 190 215q75 43 152 43q22 0 45 -4q95 -13 144 -79q34 -45 35 -97q0 -29 -11 -59q-33 -99 -164 -189q-75 -52 -188 -109q-3 -18 -3 -34q0 -100 105 -101h2q86 0 177 91q44 44 59 56q20 15 33 10q19 -8 23 -21q1 -3 1 -5q0 -12 -11 -30 q-23 -41 -126 -140q-79 -78 -179 -104q-46 -12 -89 -12q-48 0 -93 15q-89 29 -136 105q-43 69 -43 163q0 20 2 41zM316 411q91 49 161 114q65 58 75 104q2 8 2 15q0 28 -25 48q-20 12 -39 12q-49 0 -93 -81q-24 -44 -81 -212z" />
<glyph unicode="f" horiz-adv-x="895" d="M-358 -216q35 114 125 151q38 16 78 16q44 0 90 -19q16 -7 14 -25q-2 -17 -16 -30q-46 -39 -75 -126q-45 -128 -53 -169q-4 -18 -4 -33q0 -27 12 -44q13 -19 42 -20h4q32 0 54 27q67 85 178 378q58 152 425 1134q-52 10 -96 10q-91 0 -149 -41q-24 -17 -61 -54 q-51 -51 -48 -48q-21 -20 -32 -20t-11 23q0 78 86 165q87 88 214 88q62 0 135 -22l45 120q48 114 140 163q56 30 119 30q28 0 58 -6q6 -1 4 0q2 -1 4 -1q3 -1 5 -2q4 -1 10 -2q106 -30 162 -93q24 -25 27 -46q3 -22 -15 -30q-12 -5 -38 8q-36 17 -71 20h-10q-61 0 -98 -69 q-8 -18 -11 -24q-1 -3 -58 -156q141 -38 239 -38q119 0 175 55q9 9 17 4q7 -3 7 -10q0 -3 -1 -6q-21 -80 -106 -116q-53 -22 -123 -22q-74 0 -168 25q-32 9 -73 20q-357 -959 -443 -1178q-62 -161 -117 -238q-103 -143 -243 -143q-233 0 -315 116q-52 73 -52 165 q0 53 18 113z" />
<glyph unicode="g" horiz-adv-x="964" d="M-114 -218q34 115 126 154q38 16 78 16q45 0 92 -20q16 -7 14 -25t-15 -30q-47 -40 -77 -128q-45 -131 -53 -171q-4 -20 -4 -35q0 -27 11 -43q13 -19 39 -16q31 1 55 31q67 84 152 286q61 145 131 334q45 121 50 145q18 71 18 134q0 54 -14 102q-15 52 -42 52 q-24 0 -59 -45q-43 -55 -95 -170q-45 -100 -45 -168.5t45 -106.5q27 -16 31 -30q3 -14 -13 -22q-36 -21 -83 -21q-10 0 -20 1q-143 13 -204 166q-15 37 -15 85q0 114 84 290q108 225 246 267q30 9 58 9q88 0 156 -93q49 -69 53 -187q32 85 31 84q59 138 177 180q45 17 90 17 q61 0 123 -31q15 -7 15 -23q0 -19 -14 -32q-50 -46 -100 -163q-15 -35 -313 -797q-69 -177 -114 -245q-101 -149 -242 -149q-125 0 -197 24q-75 27 -122 93q-52 74 -52 166q0 54 18 115z" />
<glyph unicode="h" horiz-adv-x="1072" d="M-51 63q-19 25 -19 67q0 61 39 159q212 536 329 895q49 148 49 208q0 11 -2 20q-1 6 -1 12q0 32 43 37q23 3 43 3q112 0 165 -78q36 -53 36 -124q0 -55 -21 -121q-1 -5 -192 -499q136 167 263 182q21 3 40 3q109 0 167 -92q38 -61 38 -135q0 -54 -20 -115 q-12 -35 -86 -227q-12 -31 -6 -55q6 -27 27 -36q9 -3 19 -3q52 0 137 85q44 45 59 57q19 16 33 11q25 -10 25 -29q0 -14 -14 -33q-43 -57 -124 -138q-118 -117 -250 -117q-18 0 -36 2q-70 8 -113 52q-46 47 -51 125q-1 15 -1 30q0 86 38 189q55 152 58 168q3 20 3 36 q0 34 -16 46q-19 15 -56 -1q-39 -16 -105 -97q-129 -159 -180 -308q-34 -99 -34 -178q0 -46 2 -42q-7 -19 -51 -19h-6q-185 0 -229 60z" />
<glyph unicode="i" horiz-adv-x="551" d="M8 180q8 -78 61 -128t132 -52h4q191 0 381 256q13 19 13 33q0 19 -25 29q-12 6 -33 -11q-14 -11 -59 -57q-72 -72 -115 -83q-12 -3 -22 -3q-24 0 -38 18q-12 15 -12 36q0 18 9 40q122 314 148 370q35 77 74 113q14 13 16 31q2 19 -14 27q-62 32 -125 32q-45 0 -90 -16 q-121 -41 -180 -183t-102 -276q-25 -76 -25 -141q0 -18 2 -35zM324 996q-13 26 -13 54q0 30 15 62q27 60 92 90q41 19 81 19q24 0 48 -7q64 -19 89 -75q13 -27 12 -55q0 -30 -13 -61q-28 -61 -93 -91q-39 -18 -79 -18l-49 7q-65 19 -90 75z" />
<glyph unicode="j" horiz-adv-x="846" d="M-359 -315q-20 -67 -20 -127q0 -102 58 -183q50 -72 134 -102q79 -28 218 -28q155 0 270 160q62 86 132 266q77 197 213 562q124 332 121 326q56 129 110 180q16 14 16 33q1 20 -16 28q-68 33 -136 33q-49 0 -99 -18q-130 -46 -195 -199q-50 -119 -156 -410 q-118 -330 -168 -456q-94 -239 -160 -333q-49 -72 -88 -72q-24 0 -44 29q-13 18 -13 47q0 18 5 39q9 45 58 188q34 98 84 142q17 13 18 33q2 20 -15 28q-51 21 -100 21q-45 0 -88 -18q-101 -42 -139 -169zM611 985q-15 32 -15 63q0 35 19 69q30 58 99 89q47 22 93 22 q20 0 39 -4q72 -16 103 -84q15 -32 15 -63q0 -36 -19 -70q-30 -57 -99 -89q-47 -21 -92 -21q-20 0 -40 4q-71 16 -103 84z" />
<glyph unicode="k" horiz-adv-x="1210" d="M20 61q-21 27 -21 73q0 60 36 152q217 551 336 913q46 138 46 191q0 10 -2 17q-2 8 -2 15q0 33 39 38q21 2 41 2q112 0 166 -78q37 -53 37 -126q0 -54 -21 -119q-17 -52 -155 -409q85 68 143 85t111 17q82 0 150 -41q88 -52 88 -142q0 -38 -16 -84q-51 -144 -202 -203 q-33 -13 -73 -17q0 -157 93 -212q46 -27 106 -27q24 0 49 4q100 17 203 157q30 40 29 39q9 11 24 12t28 -7q17 -10 17 -25q0 -13 -13 -31q-71 -101 -119 -142q-131 -113 -292 -113t-245 97q-60 70 -93 213q-23 99 -23 144q0 13 2 22q4 18 51 13q9 -1 19 -1q99 0 150 130 q16 40 16 64q0 19 -10 29q-7 8 -19 8q-23 0 -62 -28q-164 -115 -260 -339q-72 -170 -72 -291q0 -60 -49 -60q-184 0 -231 60z" />
<glyph unicode="l" horiz-adv-x="541" d="M12 123q-15 39 -15 88q0 64 26 146q11 36 113 300q101 263 181 513q45 139 45 200q0 7 -1 13q-3 24 9 40q12 18 35 21q21 2 41 2q112 0 164 -78q36 -52 36 -122q0 -54 -21 -119q-18 -58 -191 -497q-31 -81 -59 -151q-24 -58 -57 -144q-29 -79 -31 -82q-8 -22 -8 -40 q0 -21 11 -35q15 -18 38 -18q10 0 21 3q43 11 113 82q43 45 58 56q20 15 32 11q25 -10 25 -30q0 -14 -13 -32q-167 -225 -340 -247q-18 -3 -36 -3q-53 0 -96 26q-55 32 -80 97z" />
<glyph unicode="m" horiz-adv-x="1662" d="M24 58q-22 28 -22 75q0 61 36 153q57 143 94 254q43 132 44 207q0 27 11 45q12 22 34 24q21 2 40 2q75 0 126 -37q63 -46 73 -133q1 -8 8 -11t12 3q126 156 254 179q30 5 57 5q74 0 128 -38q72 -52 76 -151q0 -7 6 -10q6 -2 11 3q131 168 263 191q28 5 55 5q39 0 74 -11 q56 -17 90 -58q43 -53 43 -125q0 -51 -21 -112q-4 -14 -15 -44t-16 -46q-1 -5 0 -3q-15 -41 -36 -103q-19 -54 -21 -63q-8 -22 -8 -39q0 -23 13 -39q15 -20 39 -20q9 0 19 3q44 12 114 84q45 45 59 57q20 15 32 10q18 -7 24 -21q2 -4 2 -9q0 -14 -14 -32q-42 -57 -123 -137 q-101 -99 -216 -114q-19 -2 -36 -2q-74 0 -128 41q-63 49 -70 137q-1 8 -1 17q0 61 29 160q7 25 25 76v2q3 7 4 12q14 36 25 67q-1 -1 2 2q30 79 32 85q5 20 5 35q0 29 -19 39q-11 6 -25 6q-17 0 -39 -9q-64 -27 -184 -206q-59 -89 -113 -234q-34 -91 -34 -159v-8 q0 -24 -13 -42q-14 -19 -37 -20q-15 -1 -28 -1q-147 0 -189 59q-20 28 -20 73q0 61 35 153q119 309 120 314q5 19 5 34q0 29 -20 40q-11 6 -25 6q-17 0 -38 -9q-87 -37 -210 -254q-125 -219 -125 -348q0 -29 -11 -46q-12 -20 -33 -20q-20 -1 -39 -1q-147 0 -190 57z" />
<glyph unicode="n" horiz-adv-x="1121" d="M24 59q-22 28 -22 75q0 61 37 154q137 345 139 465q0 26 10 46q13 21 35 23q21 2 41 2q84 0 137 -45q64 -55 65 -157q136 179 274 203q30 5 57 5q38 0 73 -10q56 -17 90 -60q44 -54 44 -127q0 -51 -21 -112q-13 -35 -52 -152q-37 -117 -35 -112q-9 -22 -9 -40 q0 -21 12 -35q16 -19 41 -19q9 0 19 2q43 13 114 85q45 46 60 57q20 15 32 11q18 -8 23 -22q2 -4 2 -9q0 -14 -13 -31q-171 -232 -341 -254q-18 -2 -36 -2q-75 0 -127 42q-63 48 -73 136q-2 19 -2 39q0 52 15 106q17 62 101 277l2 4q5 20 5 36q0 30 -19 41q-11 7 -25 7 q-18 0 -40 -12q-53 -31 -121 -118q-132 -170 -181 -326q-30 -100 -30 -170q0 -24 -13 -42q-15 -18 -37 -18q-20 -1 -38 -1q-149 0 -193 58z" />
<glyph unicode="o" horiz-adv-x="728" d="M47 486q104 266 244 320q56 22 108 23q18 0 35 -3q70 -9 123 -56q45 -41 57 -89q3 -16 -15 -22q-14 -4 -37 -2q-7 1 -14 1q-65 0 -128 -73q-46 -54 -75 -126q-56 -136 -73 -191q-23 -74 -23 -116q0 -40 20 -52q22 -15 53 2q26 13 40 37q45 72 125 274q36 92 36 133 q0 8 -6 23q-6 16 -7 19q-4 18 32 19h17q94 0 143 -51q36 -38 36 -94q0 -32 -12 -71q-91 -291 -288 -365q-66 -26 -146 -26q-17 0 -36 1q-97 6 -151 50q-105 82 -105 222q0 93 47 213z" />
<glyph unicode="p" horiz-adv-x="994" d="M-338 -623q0 20 15 35q50 49 100 159q202 445 377 982q41 123 43 195q1 27 13 46q14 22 37 24q17 2 33 2q85 0 136 -50q55 -53 55 -144q0 -9 -1 -19q148 194 287 212q21 3 40 3q119 0 169 -103q26 -53 26 -124q0 -102 -54 -240q-108 -275 -250 -331q-60 -23 -112 -23 q-85 0 -151 60q-45 40 -57 88q-4 19 8 26q13 7 43 -3q7 -1 14 -1q65 0 131 79q50 59 80 132q48 119 60 187q3 20 3 35q0 49 -33 49q-18 0 -45 -14q-114 -58 -249 -318q-246 -651 -310 -802q-59 -139 -177 -182q-45 -17 -92 -17q-60 0 -121 29q-18 8 -18 28z" />
<glyph unicode="q" horiz-adv-x="935" d="M-25 165q-15 37 -15 86q0 116 86 296q76 157 169 229q67 51 134 51l34 -3q77 -14 129 -90q52 -79 55 -191q30 79 32 83q60 141 180 184q46 17 92 17q63 0 126 -31q16 -8 16 -27t-15 -33q-52 -49 -103 -162l-77 -201q-92 -240 -165 -427q-38 -95 -110 -318 q-42 -127 -44 -200q0 -26 -12 -45q-13 -20 -35 -22q-22 -3 -41 -3q-106 0 -157 72q-35 49 -35 117q0 51 20 113q34 106 179 488q60 181 60 291q0 44 -10 77q-15 52 -41 52q-25 0 -61 -47q-43 -54 -98 -173q-46 -101 -46 -171t46 -109q29 -14 33 -29q3 -14 -14 -23 q-37 -21 -84 -21q-10 0 -20 1q-146 14 -208 169z" />
<glyph unicode="r" horiz-adv-x="925" d="M21 57q-21 28 -21 74q0 60 36 152q11 28 30 80q32 87 75 219q34 103 38 117q8 31 8 54q0 10 -2 19q-2 8 -2 15q0 31 37 36q21 2 41 2q79 0 129 -38q63 -48 67 -144h1v-5q1 -3 1 -5q133 174 270 189q22 3 42 3q99 0 161 -61q61 -58 61 -133q0 -54 -25 -80q-17 -18 -57 -31 q-26 -9 -49 -9q-27 0 -50 13t-67 61q-35 39 -83 39q-11 0 -22 -2q-42 -7 -77 -36q-104 -86 -171 -198q-13 -22 -19 -37q-12 -29 -18 -45q-57 -150 -57 -246q0 -23 -13 -40q-14 -19 -36 -19q-19 -1 -35 -1q-150 0 -193 57z" />
<glyph unicode="s" horiz-adv-x="718" d="M4 186q-4 23 -4 45q0 38 12 72q34 98 162 98q10 0 20 -1q16 -1 20 -15q4 -11 -3 -26q-16 -31 -25 -85q-5 -28 -5 -51q0 -49 21 -80q27 -39 81 -43q8 -1 16 0q39 0 68 16q36 22 46 69q3 16 3 33q0 103 -112 268q-64 96 -64 171q0 47 25 86q29 43 85 66q52 22 116 22h6h22 q195 0 240 -121q14 -34 14 -62q0 -8 -1 -15q-12 -73 -119 -88q-12 -2 -17 7q-4 9 -1 21q6 24 6 66q-1 54 -33 86q-24 25 -52 25q-6 0 -11 -1q-41 -8 -50 -54q-1 -3 0 -7q0 -25 22 -68q25 -49 112 -182q46 -69 45 -148v-19q-6 -89 -65 -153q-70 -77 -186 -106 q-51 -12 -101 -12l-159 30q-48 19 -86 60q-39 44 -48 96z" />
<glyph unicode="t" horiz-adv-x="757" d="M2 834q-2 11 -2 23q0 23 8 53q14 54 51 97q85 104 224 104q52 0 112 -15l2 7q43 132 43 189q0 7 -1 13q-3 22 9 38q11 16 33 18q21 2 40 2q104 0 155 -73q35 -48 35 -115q0 -51 -20 -112q-2 -5 -18 -47q96 -25 166 -25q109 0 156 60q8 9 18 6t10 -14q-7 -93 -62 -142 q-50 -45 -137 -45q-50 0 -113 15q-38 9 -86 23q-206 -529 -257 -655q-10 -28 -6 -51q6 -25 26 -33q9 -3 19 -4q49 0 128 81q42 42 56 53q18 14 30 9q25 -9 25 -27q0 -13 -13 -30q-106 -140 -222 -200q-71 -37 -134 -37q-29 0 -56 8q-83 23 -113 109q-15 41 -15 88 q0 60 24 132q14 45 91 240q83 212 144 392q-31 5 -59 5q-88 0 -158 -44q-23 -15 -87 -91q-20 -23 -31 -23t-15 18z" />
<glyph unicode="u" horiz-adv-x="1072" d="M8 135q-15 42 -15 88q0 54 21 114q56 163 112 295q59 140 180 181q44 15 87 15q63 0 126 -32q16 -8 14 -27q-2 -17 -16 -31q-39 -36 -75 -112q-137 -298 -149 -367q-4 -23 -5 -40q0 -42 27 -48q4 -1 8 0q34 0 91 49q154 136 247 390q60 153 181 198q46 17 93 17l127 -32 q16 -8 14 -27q-2 -18 -16 -31q-45 -41 -96 -158q-19 -44 -126 -319q-12 -30 -7 -56q6 -27 28 -35q9 -4 20 -4q52 0 136 87q44 45 59 56q20 16 33 11q18 -7 22 -20q2 -5 2 -10q0 -14 -13 -32q-101 -137 -214 -203q-89 -52 -170 -52q-11 0 -22 1q-85 7 -135 71q-43 55 -43 136 q0 13 1 26q-110 -148 -228 -203q-62 -29 -118 -29q-37 0 -71 13q-80 32 -110 120z" />
<glyph unicode="v" horiz-adv-x="905" d="M-50 551q0 15 9 28q84 116 145 168q76 64 162 74q19 2 36 2q47 0 86 -17q51 -22 80 -71q36 -58 36 -130q0 -54 -20 -115q-2 -5 -32 -82h-1q-70 -181 -72 -189q-12 -42 2 -61q13 -17 43 -16q63 2 106 46q89 95 120 184q27 78 27 209q0 21 -1 44q-1 22 -9 67q-9 42 -9 60 q0 29 16 44q18 17 63 17h9q104 0 153 -46q35 -32 35 -85q0 -36 -16 -82q-66 -185 -182 -342q-177 -241 -381 -256q-19 -2 -37 -2q-120 0 -181 72q-42 49 -42 119q0 49 21 109q46 132 61 174l1 1q18 55 24 70q10 32 10 55q0 20 -7 34q-10 21 -32 21q-14 0 -34 -9 q-17 -7 -116 -108q-18 -17 -35 -20q-16 -3 -26 7q-12 10 -12 26z" />
<glyph unicode="w" horiz-adv-x="1515" d="M-44 539q-1 5 -1 10q0 11 5 20q70 128 150 189q73 57 171 69q19 2 37 2q48 0 88 -17q51 -24 82 -72q35 -58 35 -130q0 -56 -21 -120q-1 -3 -50 -132q-48 -124 -50 -133q-6 -20 -6 -35q0 -28 20 -38q11 -6 25 -7q17 0 39 10q46 19 124 121q68 88 127 190l2 8q2 6 3 8h1 q30 87 38 113q30 100 30 170q0 24 14 42q16 18 38 19h26q176 0 206 -79q7 -18 7 -44q0 -73 -52 -213q-99 -256 -102 -268q-6 -19 -6 -34q0 -17 8 -28q13 -17 43 -16q64 2 107 47q92 96 123 186q27 80 27 213q0 21 -1 44q0 24 -9 68q-8 43 -8 61q0 30 15 45q19 18 63 18h9 q107 0 157 -47q36 -33 36 -87q0 -37 -17 -83q-67 -188 -185 -347q-180 -245 -387 -260q-19 -1 -36 -1q-99 0 -160 48q-67 53 -67 145q0 9 1 18q-137 -183 -278 -207q-28 -5 -55 -5q-39 0 -74 11q-57 17 -91 59q-44 53 -44 126q0 52 22 113q84 241 87 259q3 20 3 36 q0 34 -16 46q-19 15 -56 -1q-42 -18 -114 -109q-26 -30 -48 -30q-10 0 -20 7q-12 8 -15 22z" />
<glyph unicode="x" horiz-adv-x="797" d="M-68 108q3 0 38 -10q26 -6 47 -5q61 1 140 69q70 61 161 177q18 24 32 43q-1 38 -1 62v20v15q0 109 -42 187q-22 41 -50 53q-10 4 -20 4q-23 0 -47 -19q-31 -24 -51 -10q-7 6 -9 15q-2 10 3 18q33 55 116 82q47 15 92 15q33 0 66 -8q103 -23 152 -118q8 -14 16 -40 q51 54 99 95q59 50 122 57q12 1 23 1q39 0 75 -16q38 -17 55 -41q5 -8 5 -13q0 -2 -1 -4q-2 -6 -13 -5q-63 3 -64 3q-37 -11 -100 -83q-37 -44 -163 -202q11 -113 24 -237q7 -76 58 -102q20 -11 39 -11q25 0 47 20q29 26 45 12q13 -13 7 -37q-6 -30 -51 -59q-42 -26 -95 -36 q-49 -10 -91 -10q-46 0 -85 12q-106 34 -138 152q-81 -93 -120 -118q-55 -37 -127 -37q-15 0 -30 2q-84 9 -169 78q-7 6 -7 15q0 16 12 14z" />
<glyph unicode="y" horiz-adv-x="1121" d="M3 526q4 25 28 56q180 223 319 241q20 3 39 3q111 0 167 -91q35 -57 35 -129q0 -55 -21 -119q-1 -4 -50 -131q-48 -125 -50 -132q-5 -19 -5 -34q0 -30 20 -41q10 -6 24 -6q17 0 39 10q133 56 193 217q96 261 93 254q61 142 180 185q46 17 92 17l126 -31q16 -8 16 -28 q0 -19 -14 -32q-53 -49 -104 -164q-161 -353 -322 -810q-54 -155 -114 -242q-105 -151 -248 -159q-22 -1 -42 -1q-159 0 -240 76q-76 71 -90 214q-1 14 -1 27q0 44 12 90q34 118 128 157q39 17 81 17q46 0 94 -21q13 -6 11 -22t-15 -27q-40 -38 -76 -138q-47 -131 -47 -203 q0 -41 15 -63q12 -18 35 -22q26 -4 49 15q28 25 152 326q89 214 136 338q-100 -102 -202 -120q-32 -5 -60 -5q-102 0 -160 70q-44 53 -44 126q0 51 22 113q84 240 87 258q3 20 3 35q0 34 -15 46q-20 15 -58 0q-45 -20 -140 -136q-23 -31 -49 -24q-29 8 -29 34v6z" />
<glyph unicode="z" horiz-adv-x="860" d="M9 117q19 63 121 175q242 270 320 368q-29 9 -53 21q-38 21 -71 35q-42 17 -79 17q-29 0 -55 -10q-19 -8 -44 -25q-32 -23 -37 -25q-31 -19 -47 -5q-14 14 1 42q72 92 172 108q22 4 43 3q41 0 80 -13q128 -43 141 -46q34 -6 73 -6q59 0 131 14q71 15 121 38q22 10 39 10 q24 0 37 -21q4 -7 4 -15q0 -26 -38 -67q-292 -314 -505 -577q34 6 67 6q36 0 70 -7q60 -12 100 -12q26 0 44 5q36 11 56 24q25 18 43 53q8 18 33 17q23 -1 44 -19q23 -19 28 -48q2 -8 2 -17q0 -26 -17 -54q-31 -48 -86 -71q-37 -15 -77 -15q-20 0 -41 4q-91 16 -128 25 q-64 16 -111 16q-10 0 -19 -1q-23 -2 -115 -22q-75 -16 -127 -16q-92 0 -115 50q-9 19 -9 37q0 12 4 24z" />
<glyph unicode="&#xad;" d="M142 492q0 29 14 53q16 25 46 40q30 14 70 15q8 0 117 -1q194 -3 214 -3h87q49 2 62 9l7 3q20 10 41 3q20 -7 30 -26q14 -30 15 -60q0 -29 -15 -52q-15 -26 -45 -41q-30 -14 -70 -15q-16 0 -96 2q-157 3 -238 3q-62 0 -84 -1q-49 -1 -62 -9l-7 -3q-12 -6 -25 -6 q-14 0 -27 8q-12 8 -19 21q-14 31 -15 60z" />
<glyph unicode="&#xb1;" horiz-adv-x="1343" d="M134 247q45 73 159 77q7 0 221 -4q213 -3 234 -3q182 0 215 18q27 13 55 4q29 -10 42 -36q42 -87 1 -155q-45 -74 -159 -77h-1q-51 0 -175 3q-150 3 -208 3q-249 3 -276 -12q-36 -18 -65 -9q-28 8 -42 36q-42 88 -1 155zM148 937q44 73 158 76q4 0 233 -3q77 200 73 230 q-5 40 14 65q18 23 49 25q101 10 149 -58q39 -54 21 -135q-5 -27 -46 -130q145 0 168 12q35 19 65 9q28 -8 41 -36q42 -87 1 -154q-39 -65 -138 -75q-14 -1 -232 2q-98 -250 -93 -295q4 -37 -20 -59q-22 -20 -60 -22q-87 -4 -133 60q-48 67 -12 171q2 5 29 74q30 76 29 74 q-166 -1 -189 -13q-35 -19 -65 -10q-27 9 -41 37q-43 87 -1 155z" />
<glyph unicode="&#x2000;" horiz-adv-x="1068" />
<glyph unicode="&#x2001;" horiz-adv-x="2137" />
<glyph unicode="&#x2002;" horiz-adv-x="1068" />
<glyph unicode="&#x2003;" horiz-adv-x="2137" />
<glyph unicode="&#x2004;" horiz-adv-x="712" />
<glyph unicode="&#x2005;" horiz-adv-x="534" />
<glyph unicode="&#x2006;" horiz-adv-x="356" />
<glyph unicode="&#x2007;" horiz-adv-x="356" />
<glyph unicode="&#x2008;" horiz-adv-x="267" />
<glyph unicode="&#x2009;" horiz-adv-x="427" />
<glyph unicode="&#x200a;" horiz-adv-x="118" />
<glyph unicode="&#x2010;" d="M142 492q0 29 14 53q16 25 46 40q30 14 70 15q8 0 117 -1q194 -3 214 -3h87q49 2 62 9l7 3q20 10 41 3q20 -7 30 -26q14 -30 15 -60q0 -29 -15 -52q-15 -26 -45 -41q-30 -14 -70 -15q-16 0 -96 2q-157 3 -238 3q-62 0 -84 -1q-49 -1 -62 -9l-7 -3q-12 -6 -25 -6 q-14 0 -27 8q-12 8 -19 21q-14 31 -15 60z" />
<glyph unicode="&#x2011;" d="M142 492q0 29 14 53q16 25 46 40q30 14 70 15q8 0 117 -1q194 -3 214 -3h87q49 2 62 9l7 3q20 10 41 3q20 -7 30 -26q14 -30 15 -60q0 -29 -15 -52q-15 -26 -45 -41q-30 -14 -70 -15q-16 0 -96 2q-157 3 -238 3q-62 0 -84 -1q-49 -1 -62 -9l-7 -3q-12 -6 -25 -6 q-14 0 -27 8q-12 8 -19 21q-14 31 -15 60z" />
<glyph unicode="&#x2012;" d="M142 492q0 29 14 53q16 25 46 40q30 14 70 15q8 0 117 -1q194 -3 214 -3h87q49 2 62 9l7 3q20 10 41 3q20 -7 30 -26q14 -30 15 -60q0 -29 -15 -52q-15 -26 -45 -41q-30 -14 -70 -15q-16 0 -96 2q-157 3 -238 3q-62 0 -84 -1q-49 -1 -62 -9l-7 -3q-12 -6 -25 -6 q-14 0 -27 8q-12 8 -19 21q-14 31 -15 60z" />
<glyph unicode="&#x2013;" horiz-adv-x="1334" d="M142 492q0 29 20 53q24 25 67 40q44 14 102 15q12 0 171 -1q282 -3 311 -3h127q72 2 91 9l10 3q29 10 59 3t44 -26q21 -30 22 -60q0 -29 -22 -52q-22 -26 -65 -41q-44 -14 -102 -15q-24 0 -140 2q-229 3 -347 3q-90 0 -122 -1q-72 -1 -91 -9l-10 -3q-17 -6 -36 -6 q-21 0 -39 8t-28 21q-21 31 -22 60z" />
<glyph unicode="&#x2014;" horiz-adv-x="2358" d="M142 492q0 29 41 53q46 25 134 40q87 14 204 15q23 0 341 -1q565 -3 623 -3h253q143 2 181 9l20 3q59 10 120 3q58 -7 87 -26q41 -30 44 -60q0 -29 -44 -52q-43 -26 -131 -41q-87 -14 -204 -15q-46 0 -279 2q-458 3 -694 3q-180 0 -244 -1q-143 -1 -181 -9l-20 -3 q-35 -6 -73 -6q-41 0 -79 8q-35 8 -55 21q-41 31 -44 60z" />
<glyph unicode="&#x201d;" horiz-adv-x="1121" d="M248 1367q-22 49 2 94q22 41 71 64q49 22 95 12q50 -11 72 -60q20 -42 4 -99q-15 -52 -54 -101q-38 -48 -84 -73q-49 -26 -87 -15q-13 4 -3 19q1 1 27 33q20 23 24 38q6 21 -14 35q-35 16 -53 53zM555 1367q-22 49 2 94q22 41 71 64q49 22 94 12q51 -11 73 -60 q20 -43 4 -100q-15 -52 -54 -100q-38 -48 -84 -73q-49 -26 -88 -15q-12 4 -2 19q1 1 27 33q19 23 24 38q5 21 -14 35q-36 16 -53 53z" />
<glyph unicode="&#x201e;" horiz-adv-x="1092" d="M298 20q-22 49 2 94q22 41 71 64q49 22 95 12q50 -11 72 -60q20 -42 4 -99q-15 -52 -54 -101q-38 -48 -84 -73q-49 -26 -87 -15q-13 4 -3 19q1 1 27 33q20 23 24 38q6 21 -14 35q-35 16 -53 53zM605 20q-22 49 2 94q22 41 71 64q49 22 94 12q51 -11 73 -60q20 -43 4 -100 q-15 -52 -54 -100q-38 -48 -84 -73q-49 -26 -88 -15q-12 4 -2 19q1 1 27 33q19 23 24 38q5 21 -14 35q-36 16 -53 53z" />
<glyph unicode="&#x2026;" horiz-adv-x="2213" d="M269 56q-20 43 2 83q19 36 62 56t83 11q45 -10 65 -53t-2 -83q-19 -37 -62 -56q-44 -20 -84 -11q-45 10 -64 53zM949 56q-20 43 2 83q19 36 62 56t83 11q45 -10 65 -53t-2 -83q-19 -37 -62 -56q-44 -20 -84 -11q-45 10 -64 53zM1629 56q-20 43 2 83q19 36 62 56t83 11 q45 -10 65 -53t-2 -83q-19 -37 -62 -56q-44 -20 -84 -11q-45 10 -64 53z" />
<glyph unicode="&#x202f;" horiz-adv-x="427" />
<glyph unicode="&#x205f;" horiz-adv-x="534" />
<glyph unicode="&#x25fc;" horiz-adv-x="825" d="M0 0v825h825v-825h-825z" />
</font>
</defs>
</svg>
